<svg width="1440" height="801" viewBox="0 0 1440 801" fill="none" xmlns="http://www.w3.org/2000/svg">
    <g opacity="0.25">
        <path d="M1464.59 91.7205C1416.61 125.29 1409.82 198.34 1449.42 254.961C1497.32 221.263 1504.11 148.213 1464.59 91.7205Z" fill="#E4E4E4"/>
        <path d="M1385.26 163.24C1337.27 196.809 1266.33 178.138 1226.72 121.517C1274.8 88.0762 1345.75 106.747 1385.26 163.24Z" fill="#E0E0E0"/>
        <path d="M1449.33 254.833C1401.34 288.402 1330.4 269.731 1290.79 213.11C1338.87 179.669 1409.82 198.34 1449.33 254.833Z" fill="#E4E4E4"/>
        <path d="M1400.52 0.128578C1352.54 33.6978 1345.75 106.748 1385.35 163.369C1433.25 129.671 1440.04 56.6214 1400.52 0.128578Z" fill="#E0E0E0"/>
    </g>
    <g clip-path="url(#clip0_43_76)">
        <path d="M22.6693 629.5C65.0434 629.5 99.3943 595.149 99.3943 552.775C99.3943 510.401 65.0434 476.05 22.6693 476.05C-19.7047 476.05 -54.0557 510.401 -54.0557 552.775C-54.0557 595.149 -19.7047 629.5 22.6693 629.5Z" fill="#F5F5F5" fill-opacity="0.98"/>
        <path d="M249.056 630.5L99.3945 480.839V630.5H249.056Z" fill="white" fill-opacity="0.8"/>
        <path d="M22.6693 783.95C65.0434 783.95 99.3943 749.599 99.3943 707.225C99.3943 664.851 65.0434 630.5 22.6693 630.5C-19.7047 630.5 -54.0557 664.851 -54.0557 707.225C-54.0557 749.599 -19.7047 783.95 22.6693 783.95Z" fill="white" fill-opacity="0.8"/>
        <path d="M249.056 779.161L99.3945 629.5V779.161H249.056Z" fill="#F5F5F5" fill-opacity="0.98"/>
    </g>
    <defs>
        <clipPath id="clip0_43_76">
            <rect width="341" height="341" fill="white" transform="translate(-73 460)"/>
        </clipPath>
    </defs>
</svg>
